<svg id="casinha" viewBox="0 0 51 42" fill="none" xmlns="http://www.w3.org/2000/svg">
<g clip-path="url(#clip0_671_797)">
<path d="M8.11878 15.0244L2.19652 20.0637C2.02005 20.2239 1.89811 20.4301 1.84628 20.656C1.79446 20.882 1.81509 21.1174 1.90554 21.3322C1.99599 21.547 2.15217 21.7315 2.35413 21.8621C2.55609 21.9927 2.79468 22.0635 3.03943 22.0654L6.52752 22.0829L6.46295 33.4095C6.45915 34.1726 6.61455 34.929 6.92026 35.6355C7.22597 36.3419 7.67601 36.9846 8.24468 37.5268C8.81335 38.0689 9.48952 38.5 10.2346 38.7954C10.9796 39.0907 11.779 39.2446 12.587 39.2481L28.0534 39.3276C29.6772 39.3355 31.2386 38.7371 32.3975 37.6627C33.5564 36.5883 34.219 35.125 34.2408 33.5913L34.4034 22.1395L37.925 22.1569C38.1076 22.16 38.2887 22.1238 38.4543 22.0509C38.6199 21.9781 38.7658 21.8706 38.8809 21.7365" stroke="black" stroke-width="2.27236" stroke-miterlimit="10" stroke-linecap="round"/>
<path d="M38.5943 21.1005C38.7914 20.8779 38.8933 20.5939 38.88 20.3043C38.8666 20.0146 38.7391 19.7401 38.5223 19.5343L21.395 3.13695C20.9186 2.68165 20.3761 2.86552 19.8846 3.30878L15.4082 7.3233" stroke="black" stroke-width="2.27236" stroke-miterlimit="10" stroke-linecap="round"/>
<path d="M21.6877 20.8957L18.7219 20.8798C16.812 20.8696 15.2553 22.3904 15.245 24.2766L15.2289 27.2056C15.2186 29.0918 16.7585 30.6291 18.6684 30.6393L21.6342 30.6552C23.5441 30.6654 25.1008 29.1446 25.1111 27.2584L25.1271 24.3294C25.1375 22.4432 23.5976 20.9059 21.6877 20.8957Z" stroke="black" stroke-width="2.27236" stroke-miterlimit="10"/>
</g>
<defs>
<clipPath id="clip0_671_797">
<rect transform="translate(0.115234)"/>
</clipPath>
</defs>
</svg>
