<svg id="chat" viewBox="0 0 57 44" fill="none" xmlns="http://www.w3.org/2000/svg">
<path d="M10.8091 6.3871C14.3834 3.85986 18.7285 2.61023 23.124 2.84543C27.5195 3.08063 31.7012 4.78652 34.9757 7.68024C38.2501 10.574 40.4207 14.4816 41.1274 18.7553C41.834 23.0289 41.0344 27.4118 38.861 31.177L41.3757 40.3965L32.1747 37.9733C29.2501 39.7379 25.9001 40.7039 22.4698 40.7717C19.0395 40.8394 15.6528 40.0066 12.6585 38.3588C9.66427 36.7111 7.17067 34.3081 5.43455 31.3972C3.69844 28.4864 2.78256 25.173 2.78125 21.7982C2.78125 18.958 3.11538 16.9371 4.25242 14.5176" stroke="black" stroke-width="2.47593" stroke-miterlimit="10" stroke-linecap="round"/>
<path d="M12.0697 23.7689C13.3497 23.7689 14.3874 22.7482 14.3874 21.4892C14.3874 20.2301 13.3497 19.2095 12.0697 19.2095C10.7896 19.2095 9.75195 20.2301 9.75195 21.4892C9.75195 22.7482 10.7896 23.7689 12.0697 23.7689Z"/>
<path d="M22.4271 23.7689C23.7071 23.7689 24.7448 22.7482 24.7448 21.4892C24.7448 20.2301 23.7071 19.2095 22.4271 19.2095C21.147 19.2095 20.1094 20.2301 20.1094 21.4892C20.1094 22.7482 21.147 23.7689 22.4271 23.7689Z"/>
<path d="M32.9115 23.7689C34.1915 23.7689 35.2292 22.7482 35.2292 21.4892C35.2292 20.2301 34.1915 19.2095 32.9115 19.2095C31.6314 19.2095 30.5938 20.2301 30.5938 21.4892C30.5938 22.7482 31.6314 23.7689 32.9115 23.7689Z"/>
</svg>
