<svg id="comentario" viewBox="0 0 41 41" fill="none" xmlns="http://www.w3.org/2000/svg">
<path d="M9.61817 5.34409C12.9901 2.88878 17.0892 1.67472 21.2357 1.90322C25.3823 2.13173 29.3272 3.78907 32.4163 6.60042C35.5053 9.41176 37.553 13.2082 38.2196 17.3602C38.8863 21.5122 38.1319 25.7703 36.0816 29.4284L38.4539 38.3854L29.7739 36.0312C27.0149 37.7456 23.8547 38.6841 20.6186 38.7499C17.3825 38.8158 14.1876 38.0066 11.3629 36.4058C8.53817 34.8049 6.18578 32.4703 4.54798 29.6423C2.91017 26.8143 2.04616 23.5952 2.04492 20.3165C2.04492 17.5572 2.36013 15.5938 3.43278 13.2431" stroke="#1D1D1B" stroke-width="2.40545" stroke-miterlimit="10" stroke-linecap="round"/>
</svg>
