<svg viewBox="0 0 41 40" fill="none" xmlns="http://www.w3.org/2000/svg">
<path d="M9.65918 5.02939C13.0311 2.57409 17.1302 1.36002 21.2768 1.58853C25.4233 1.81703 29.3682 3.47437 32.4573 6.28572C35.5463 9.09707 37.594 12.8935 38.2606 17.0455C38.9273 21.1975 38.1729 25.4556 36.1226 29.1137L38.4949 38.0707L29.8149 35.7165C27.0559 37.4309 23.8957 38.3694 20.6596 38.4352C17.4235 38.5011 14.2286 37.6919 11.4039 36.0911C8.57919 34.4902 6.2268 32.1556 4.58899 29.3276C2.95119 26.4996 2.08718 23.2805 2.08594 20.0018C2.08594 17.2425 2.40114 15.2791 3.4738 12.9284" stroke-width="2.40545" stroke-miterlimit="10" stroke-linecap="round"/>
</svg>
