<svg id="compartilhar" viewBox="0 0 41 41" fill="none" xmlns="http://www.w3.org/2000/svg">
<path d="M2.17578 5.06677H18.8915" stroke="#1D1D1B" stroke-width="2.40381" stroke-miterlimit="10" stroke-linecap="round"/>
<path d="M35.6073 20.1092V33.4939C35.6073 34.9942 34.9846 36.433 33.8763 37.4939C32.7679 38.5547 31.2647 39.1507 29.6972 39.1507H8.08585C6.51841 39.1507 5.01515 38.5547 3.9068 37.4939C2.79844 36.433 2.17578 34.9942 2.17578 33.4939V14.0363" stroke="#1D1D1B" stroke-width="2.40381" stroke-miterlimit="10" stroke-linecap="round"/>
<path d="M15.1758 24.7996L39.3208 3.27295" stroke="#1D1D1B" stroke-width="2.40381" stroke-miterlimit="10" stroke-linecap="round"/>
<path d="M26.3223 1.479H38.1193C38.2774 1.47885 38.4341 1.50997 38.5803 1.57058C38.7264 1.63119 38.8592 1.72011 38.9711 1.83224C39.0829 1.94437 39.1716 2.07751 39.2321 2.22404C39.2925 2.37058 39.3236 2.52763 39.3234 2.6862V14.0362" stroke="#1D1D1B" stroke-width="2.40381" stroke-miterlimit="10" stroke-linecap="round"/>
</svg>
