<svg id="curtida" viewBox="0 0 40 41" fill="none" xmlns="http://www.w3.org/2000/svg">
<path d="M13.7544 11.5131L17.8533 2.70716C18.0282 2.33158 18.2986 2.01535 18.6341 1.79423C18.9697 1.57312 19.3569 1.45593 19.7519 1.45593C20.147 1.45593 20.5342 1.57312 20.8697 1.79423C21.2052 2.01535 21.4757 2.33158 21.6505 2.70716L25.7511 11.5131C25.9053 11.8446 26.1333 12.1314 26.4154 12.3486C26.6976 12.5658 27.0253 12.7069 27.3704 12.7598L36.5375 14.1681C36.9287 14.228 37.2963 14.4028 37.5986 14.6728C37.901 14.9427 38.126 15.2969 38.2482 15.6954C38.3704 16.0939 38.385 16.5207 38.2902 16.9275C38.1954 17.3343 37.9951 17.7049 37.712 17.9972L31.0774 24.8523C30.8269 25.11 30.6394 25.4284 30.531 25.78C30.4226 26.1317 30.3965 26.5061 30.4552 26.8708L32.0201 36.5491C32.087 36.962 32.0436 37.3864 31.8948 37.7745C31.746 38.1625 31.4977 38.4987 31.178 38.7449C30.8583 38.9912 30.48 39.1376 30.0859 39.1678C29.6917 39.1979 29.2975 39.1105 28.9478 38.9155L20.7483 34.346C20.4396 34.1738 20.0961 34.0838 19.7473 34.0838C19.3985 34.0838 19.0549 34.1738 18.7462 34.346L10.5467 38.9155C10.197 39.1105 9.8028 39.1979 9.40867 39.1678C9.01454 39.1376 8.63623 38.9912 8.31654 38.7449C7.99686 38.4987 7.74857 38.1625 7.59975 37.7745C7.45093 37.3864 7.40753 36.962 7.47445 36.5491L9.04093 26.8708C9.09942 26.5061 9.07334 26.1318 8.96493 25.7801C8.85653 25.4285 8.66906 25.1101 8.4187 24.8523L1.78567 17.9972C1.50238 17.7044 1.30216 17.3333 1.20771 16.9261C1.11325 16.5188 1.12834 16.0916 1.25126 15.6929C1.37419 15.2943 1.60003 14.9401 1.90317 14.6706C2.20632 14.4011 2.57463 14.227 2.96636 14.1681L12.135 12.7565C12.48 12.7034 12.8077 12.5621 13.0898 12.3449C13.3719 12.1278 13.5999 11.8412 13.7544 11.5098" stroke="#1D1D1B" stroke-width="2.0102" stroke-miterlimit="10"/>
</svg>
