<svg id="disquete" viewBox="0 0 49 45" fill="none" xmlns="http://www.w3.org/2000/svg">
<path d="M4.54102 6.77054V6.62721C4.54102 5.46876 5.00888 4.35776 5.84168 3.53861C6.67448 2.71947 7.804 2.25928 8.98175 2.25928H35.9384C36.8477 2.25875 37.7205 2.61133 38.3669 3.24036L44.1832 8.89137C44.6004 9.29772 44.9316 9.78138 45.1576 10.3144C45.3836 10.8474 45.4999 11.4192 45.4999 11.9967V36.9195C45.4999 37.6574 45.3521 38.388 45.065 39.0697C44.778 39.7514 44.3572 40.3707 43.8268 40.8925C43.2964 41.4142 42.6666 41.8281 41.9736 42.1104C41.2806 42.3928 40.5378 42.5381 39.7876 42.5381H9.67215C8.9984 42.5384 8.33121 42.408 7.70868 42.1546C7.08615 41.9011 6.52049 41.5295 6.04399 41.061C5.5675 40.5925 5.18952 40.0362 4.93163 39.424C4.67375 38.8117 4.54102 38.1555 4.54102 37.4928V21.2206" stroke="#11D183" stroke-width="2.01846" stroke-miterlimit="10" stroke-linecap="round"/>
<path d="M12.6934 2.25928H35.5354V15.0116C35.5354 15.7474 35.2382 16.4531 34.7093 16.9733C34.1803 17.4936 33.4629 17.7859 32.7148 17.7859H15.5139C14.7659 17.7859 14.0484 17.4936 13.5195 16.9733C12.9905 16.4531 12.6934 15.7474 12.6934 15.0116V2.25928Z" stroke="#11D183" stroke-width="2.01846" stroke-miterlimit="10"/>
<path d="M13.5558 24.2559H35.9433C36.3855 24.2559 36.8233 24.3415 37.2318 24.508C37.6403 24.6744 38.0115 24.9183 38.3241 25.2259C38.6368 25.5334 38.8848 25.8985 39.054 26.3003C39.2232 26.7021 39.3103 27.1327 39.3103 27.5676V42.5398H10.1836V27.5676C10.1836 27.1323 10.2709 26.7012 10.4404 26.2991C10.6099 25.897 10.8584 25.5316 11.1716 25.2241C11.4848 24.9165 11.8566 24.6726 12.2657 24.5065C12.6748 24.3404 13.1132 24.2552 13.5558 24.2559Z" stroke="#11D183" stroke-width="2.01846" stroke-miterlimit="10"/>
<path d="M31.0501 5.88867H28.4655C28.0056 5.88867 27.6328 6.25534 27.6328 6.70766V13.1094C27.6328 13.5617 28.0056 13.9284 28.4655 13.9284H31.0501C31.51 13.9284 31.8827 13.5617 31.8827 13.1094V6.70766C31.8827 6.25534 31.51 5.88867 31.0501 5.88867Z" stroke="#11D183" stroke-width="2.12596" stroke-miterlimit="10"/>
</svg>
