<svg id="email" xmlns="http://www.w3.org/2000/svg" viewBox="0 0 136.347 106.426">
  <path id="Path_67" data-name="Path 67" d="M201.788,350.425H110.21a22.419,22.419,0,0,1-22.39-22.371V278.115a2.848,2.848,0,0,1,2.848-2.848h0a2.848,2.848,0,0,1,2.848,2.848v49.937A16.715,16.715,0,0,0,110.21,344.73h91.577a16.717,16.717,0,0,0,16.685-16.681V266.392a16.686,16.686,0,0,0-1.891-7.746,2.848,2.848,0,0,1,5.047-2.639,22.4,22.4,0,0,1,2.539,10.392v61.653A22.421,22.421,0,0,1,201.788,350.425Z" transform="translate(-87.82 -243.999)"/>
  <path id="Path_68" data-name="Path 68" d="M225.778,237.536a2.847,2.847,0,0,1-2.526-1.528,16.643,16.643,0,0,0-14.788-8.952H116.881a16.615,16.615,0,0,0-14.055,7.692,2.848,2.848,0,0,1-4.8-3.07,22.285,22.285,0,0,1,18.852-10.317h91.584A22.32,22.32,0,0,1,228.3,233.367a2.849,2.849,0,0,1-2.521,4.169Z" transform="translate(-94.492 -221.36)"/>
  <path id="Path_69" data-name="Path 69" d="M181.091,312.22l-55.253-35.5a2.848,2.848,0,1,1,3.078-4.792l52.176,33.52,52.214-33.52a2.848,2.848,0,0,1,3.077,4.793Z" transform="translate(-112.914 -255.62)"/>
</svg>
