<svg id="entusiasta" xmlns="http://www.w3.org/2000/svg" viewBox="0 0 67.919 67.919">
  <g id="Icon" transform="translate(-114.55 -214.65)">
    <path id="Ellipse_38" data-name="Ellipse 38" d="M27.459-6.5A33.959,33.959,0,1,1-6.5,27.459,34,34,0,0,1,27.459-6.5Zm0,65.406A31.447,31.447,0,1,0-3.987,27.459,31.482,31.482,0,0,0,27.459,58.906Z" transform="translate(121.05 221.15)"/>
    <path id="Ellipse_39" data-name="Ellipse 39" d="M5.452-6.5A11.952,11.952,0,1,1-6.5,5.452,11.965,11.965,0,0,1,5.452-6.5Zm0,21.391A9.439,9.439,0,1,0-3.988,5.452,9.45,9.45,0,0,0,5.452,14.891Z" transform="translate(142.897 231.163)"/>
    <path id="Path_74" data-name="Path 74" d="M373.823,454.767H371.31l2.513-.037Z" transform="translate(-207.136 -193.68)"/>
    <path id="Path_75" data-name="Path 75" d="M204.629,403.15H220.68l.127.027c3.324.694,9.67,3.779,10,10.491.188,1.1.755,7.744-11.853,11.276a25.365,25.365,0,0,1-6.838.959,23.271,23.271,0,0,1-14.219-4.7,8.468,8.468,0,0,1-3.222-10.235,12.681,12.681,0,0,1,9.878-7.8Zm15.777,2.513h-15.62a10.136,10.136,0,0,0-7.765,6.208,6.034,6.034,0,0,0,2.363,7.306,21.227,21.227,0,0,0,12.736,4.213,22.851,22.851,0,0,0,6.16-.866c11-3.082,10.071-8.367,10.058-8.419l-.028-.118-.005-.122C228.054,407.766,221.364,405.9,220.407,405.663Z" transform="translate(-64.136 -152.069)"/>
  </g>
</svg>
