<svg width="93" height="72" viewBox="0 0 93 72" fill="none" xmlns="http://www.w3.org/2000/svg">
<g clip-path="url(#clip0_629_166)">
<path d="M88.8872 8.40255C82.6119 -6.06056 68.2125 -16.2549 51.5439 -16.2549H40.8424C24.0617 -16.2549 9.55019 -5.92014 3.35899 8.73955C1.34195 13.598 0.193359 18.9339 0.193359 24.5226V35.2225C0.193359 36.6267 0.277403 38.0308 0.417475 39.4069C2.51856 59.88 19.9155 75.9719 40.8704 75.9719H51.5719C72.4147 75.9719 89.7276 60.0485 91.9688 39.7159C92.1368 38.2274 92.2209 36.739 92.2209 35.1944V24.4664C92.1929 18.7935 91.0163 13.3453 88.8872 8.40255Z" fill="#11D183"/>
<path d="M87.4589 31.5435C87.4589 36.4581 85.75 41.2043 84.1532 45.5853C78.4662 61.0875 63.5905 72.1525 46.1655 72.1525C28.6285 72.1525 13.6968 60.9752 8.06585 45.3326C6.52505 41.0358 5.15234 36.3177 5.15234 31.4873C5.15234 19.6641 8.87827 8.82376 18.4872 1.66241C19.8039 0.679485 21.4288 0.202063 23.0536 0.342481H23.0816C32.9707 1.18499 41.0389 6.38048 45.5212 14.609C45.8574 15.2268 46.7538 15.2268 47.09 14.6371C51.8805 6.35239 60.1448 1.32541 69.5016 0.342481C69.6136 0.342481 69.7257 0.314396 69.8378 0.314396C71.2385 0.258228 72.5832 0.735651 73.7038 1.57816C83.817 9.2731 87.4589 19.636 87.4589 31.5435Z" fill="white"/>
<path d="M67.7645 41.5694C73.0095 41.5694 77.2614 37.307 77.2614 32.049C77.2614 26.791 73.0095 22.5286 67.7645 22.5286C62.5195 22.5286 58.2676 26.791 58.2676 32.049C58.2676 37.307 62.5195 41.5694 67.7645 41.5694Z" fill="#11D183"/>
<path d="M63.1137 31.038C64.9703 31.038 66.4754 29.5292 66.4754 27.668C66.4754 25.8067 64.9703 24.2979 63.1137 24.2979C61.2571 24.2979 59.752 25.8067 59.752 27.668C59.752 29.5292 61.2571 31.038 63.1137 31.038Z" fill="white"/>
<path d="M23.7547 42.3276C28.9997 42.3276 33.2516 38.0652 33.2516 32.8072C33.2516 27.5493 28.9997 23.2869 23.7547 23.2869C18.5097 23.2869 14.2578 27.5493 14.2578 32.8072C14.2578 38.0652 18.5097 42.3276 23.7547 42.3276Z" fill="#11D183"/>
<path d="M19.0766 31.038C20.9332 31.038 22.4383 29.5292 22.4383 27.668C22.4383 25.8067 20.9332 24.2979 19.0766 24.2979C17.2199 24.2979 15.7148 25.8067 15.7148 27.668C15.7148 29.5292 17.2199 31.038 19.0766 31.038Z" fill="white"/>
<path d="M53.9258 39.5193C53.9258 39.5193 68.8855 30.701 85.9743 39.5193C85.9743 39.5193 81.2679 49.826 71.0146 49.0396C71.0146 49.0116 58.268 49.2362 53.9258 39.5193Z" fill="#11D183"/>
<path d="M4.95703 38.6206C4.95703 38.6206 19.9168 29.8023 37.0056 38.6206C37.0056 38.6206 32.2992 48.9273 22.0459 48.141C22.0459 48.141 9.29927 48.3375 4.95703 38.6206Z" fill="#11D183"/>
<path d="M40.226 30.1112C39.6377 20.8997 31.9617 13.598 22.6329 13.6261H21.5123C21.4563 13.6261 21.4003 13.6261 21.3162 13.6261C15.2371 13.6541 9.88633 16.7995 6.80474 21.5457C5.71218 23.2026 4.89976 25.0842 4.42351 27.0781C4.11535 28.3981 3.94727 29.8023 3.94727 31.2345V33.1442C4.00329 42.805 11.8754 50.6123 21.5123 50.5561H22.6329H22.6609C32.1859 50.5561 39.9178 43.0016 40.254 33.5374C40.254 33.3408 40.254 33.1442 40.254 32.9476V31.2065C40.254 30.8414 40.254 30.4763 40.226 30.1112ZM37.0043 32.9757C36.9763 40.9234 30.533 47.3546 22.6329 47.3265H21.5123C13.6123 47.2984 7.22496 40.8672 7.19694 32.9757V31.2345C7.22496 23.3149 13.6123 16.9118 21.5123 16.8838H22.6329C30.561 16.8557 37.0043 23.2868 37.0043 31.2345V32.9757Z" fill="#11D183"/>
<path d="M87.824 27.0781C87.3477 25.0842 86.5353 23.2307 85.4427 21.5737C82.2771 16.7714 76.8703 13.626 70.7071 13.626H69.5866C69.5305 13.626 69.4745 13.626 69.4185 13.626C60.2297 13.6822 52.7218 20.8155 52.0775 29.8584C52.0495 30.3078 52.0215 30.7852 52.0215 31.2345V33.2565C52.1335 42.8893 59.9776 50.6404 69.5866 50.5842H70.7352C80.4562 50.5842 88.3282 42.7207 88.3563 32.9757V31.2345C88.3282 29.8022 88.1601 28.3981 87.824 27.0781ZM85.0786 32.9757C85.0505 40.9234 78.6072 47.3265 70.7071 47.3265H69.5866C61.6865 47.2984 55.2992 40.8953 55.2712 32.9757V31.2345C55.2992 23.3149 61.6865 16.9118 69.5866 16.8837H70.7071C78.6352 16.8837 85.0786 23.2868 85.0786 31.2345V32.9757Z" fill="#11D183"/>
<path d="M54.8229 33.2846C54.3187 33.9587 53.3662 34.0991 52.6938 33.6216C52.6938 33.6216 52.4697 33.4531 52.0215 33.2285C51.041 32.723 49.052 31.9085 46.3626 31.9085C44.2055 31.9085 42.1044 32.4702 40.2554 33.5374C40.0313 33.6497 39.8352 33.7901 39.6391 33.9306C39.387 34.1272 39.0508 34.2395 38.7426 34.2395C37.8742 34.2395 37.1738 33.5374 37.1738 32.6949C37.1738 32.1894 37.3979 31.74 37.8182 31.4311C38.6026 30.9256 39.387 30.4763 40.2554 30.1112C42.1884 29.2687 44.2615 28.8193 46.3906 28.8193C48.7718 28.8193 50.7048 29.3248 52.1055 29.8584C53.6183 30.4482 54.4868 31.066 54.5428 31.1222C55.1871 31.6277 55.3272 32.6106 54.8229 33.2846Z" fill="#11D183"/>
<path d="M89.3093 23.2869V25.337C89.3093 25.7582 89.1132 26.1514 88.8051 26.4042C88.581 26.6007 88.2728 26.7131 87.9366 26.7131H85.8916C85.1352 26.7131 84.5469 26.0952 84.5469 25.337V23.2869C84.5469 22.6409 84.9951 22.0793 85.6114 21.9388C85.6955 21.9108 85.8075 21.9108 85.8916 21.9108H87.9366C88.2448 21.9108 88.5249 21.995 88.749 22.1916C89.1132 22.4444 89.3093 22.8375 89.3093 23.2869Z" fill="#11D183"/>
<path d="M8.17772 23.1183V25.5055C8.17772 26.376 7.47736 27.0781 6.60891 27.0781H4.22768C3.83548 27.0781 3.49931 26.9377 3.21916 26.7131C2.85498 26.4322 2.63086 25.9829 2.63086 25.5055V23.1183C2.63086 22.5847 2.88299 22.1354 3.27519 21.8546C3.52732 21.658 3.8635 21.5457 4.22768 21.5457H6.60891C6.66494 21.5457 6.74899 21.5457 6.80502 21.5457C7.58942 21.6299 8.17772 22.3039 8.17772 23.1183Z" fill="#11D183"/>
<path d="M52.2724 44.9113L47.0897 53.9262C47.0057 54.0947 46.8656 54.207 46.6975 54.3194C46.1933 54.6002 45.577 54.4317 45.2688 53.9262C44.4004 52.4237 43.5389 50.9213 42.6775 49.4188C41.816 47.9163 40.9546 46.4138 40.0861 44.9113V44.8832C39.806 44.3777 39.9741 43.7599 40.4783 43.479C44.0082 41.457 48.3504 41.457 51.8802 43.479C52.4125 43.788 52.5806 44.4058 52.2724 44.9113Z" fill="#11D183"/>
<path d="M52.2724 44.9113L47.0897 53.9262C47.0057 54.0947 46.8656 54.207 46.6975 54.3194C46.1933 54.6002 45.577 54.4317 45.2688 53.9262C44.4004 52.4237 43.5389 50.9213 42.6775 49.4188C41.816 47.9163 40.9546 46.4138 40.0861 44.9113V44.8832C39.806 44.3777 39.9741 43.7599 40.4783 43.479C44.0082 41.457 48.3504 41.457 51.8802 43.479C52.4125 43.788 52.5806 44.4058 52.2724 44.9113Z" stroke="black"/>
</g>
<defs>
<clipPath id="clip0_629_166">
<rect width="91.9995" height="72" fill="white" transform="translate(0.193359)"/>
</clipPath>
</defs>
</svg>
