<svg id="lattes" xmlns="http://www.w3.org/2000/svg" viewBox="0 0 103.919 125.435">
  <path id="Caminho_68" data-name="Caminho 68" d="M786.458,447.629c2.3.582,4.265,1.034,6.2,1.574a121.152,121.152,0,0,0,31.165,4.693c10.794.138,21.19-1.484,31.029-6.018,6.045-2.786,11.155-6.709,14.553-12.608,2.882-5,3.186-10.348,1.977-15.795-.662-2.979-1.887-5.83-2.786-8.76a29.406,29.406,0,0,1-.9-3.988c-.138-.864.309-1.27,1.193-.846a3.707,3.707,0,0,1,1.078.651c5.646,5.827,10.936,11.905,14.172,19.5a41.474,41.474,0,0,1,3.153,21.471c-.59,4.941-2.566,9.529-4.772,13.987-5.512,11.138-14.242,19.188-24.626,25.624-10.909,6.761-22.8,11.11-35.239,14.046-4.409,1.041-8.889,1.772-13.308,2.773-1.278.29-1.74-.077-2.167-1.211q-6.968-18.489-14.012-36.95-3.141-8.273-6.265-16.551C786.757,448.837,786.677,448.425,786.458,447.629Z" transform="translate(-783.67 -378.594)"/>
  <path id="Caminho_69" data-name="Caminho 69" d="M776.639,350.52a47.454,47.454,0,0,1,2.069-14.307c4-12.436,11.764-21.132,24.778-24.548,8.533-2.239,17.046-1.682,25.567-.076a105.143,105.143,0,0,1,26.938,9.439c.76.374,1.252,1.292,1.868,1.958-.734.326-1.47.931-2.2.923a49.5,49.5,0,0,1-5.63-.5c-6.623-.83-13.244-1.579-19.922-.59a24.574,24.574,0,0,0-11.188,4.138c-3.979,2.909-5.815,7.116-6.471,11.851-.868,6.265-.038,12.436,1.271,18.572a127.183,127.183,0,0,0,7.2,22.052c.36.871.656,1.768,1,2.644.4,1.018.061,1.475-1.008,1.3q-3.848-.624-7.686-1.3-10.594-1.869-21.185-3.755c-3.673-.649-7.358-1.241-11.014-1.975a2.168,2.168,0,0,1-1.394-1.322A99.273,99.273,0,0,1,776.639,350.52Z" transform="translate(-776.637 -310.179)"/>
  <path id="Caminho_70" data-name="Caminho 70" d="M948.279,427.455a25.052,25.052,0,0,1-14.006-3.886c-4.284-2.683-7.826-6.144-9.8-10.887-1.636-3.924-2.36-7.972-.522-12.093a12.763,12.763,0,0,1,10.336-7.676c7.135-1.086,13.3,1.48,18.832,5.754a22.441,22.441,0,0,1,8.145,11.15c2.073,6.663-.8,14.253-8.318,16.524C951.147,426.883,949.29,427.217,948.279,427.455Z" transform="translate(-881.355 -369.249)"/>
</svg>
