<svg xmlns="http://www.w3.org/2000/svg" viewBox="0 0 525.15 921.41">
  <defs>
    <style>
      .cls-1 {
        fill: #4aba7e;
      }
    </style>
  </defs>
  <title>Asset 1</title>
  <g id="Layer_2" data-name="Layer 2">
    <g id="Capa_1" data-name="Capa 1">
      <g>
        <path class="cls-1" d="M414.24,921.41H110.92a27.86,27.86,0,0,1,0-55.72H414.24a27.86,27.86,0,1,1,0,55.72Z"/>
        <path class="cls-1" d="M262.58,921.41a27.86,27.86,0,0,1-27.86-27.86V665.31a27.86,27.86,0,0,1,55.72,0V893.55A27.86,27.86,0,0,1,262.58,921.41Z"/>
        <path class="cls-1" d="M264.09,565.64h-3A150.14,150.14,0,0,1,110.92,415.5V150.14A150.14,150.14,0,0,1,261.06,0h3A150.14,150.14,0,0,1,414.24,150.14V415.5A150.14,150.14,0,0,1,264.09,565.64Z"/>
        <path class="cls-1" d="M264.09,676.56h-3A261.05,261.05,0,0,1,0,415.5a27.86,27.86,0,0,1,55.72,0A205.33,205.33,0,0,0,261.06,620.84h3A205.35,205.35,0,0,0,469.44,415.5a27.86,27.86,0,1,1,55.71,0A261.05,261.05,0,0,1,264.09,676.56Z"/>
      </g>
    </g>
  </g>
</svg>
