<svg id="qualificado" xmlns="http://www.w3.org/2000/svg" viewBox="0 0 77.52 70.685">
  <g id="Camada_5" data-name="Camada 5" transform="translate(0 2.931)">
    <path id="Ellipse_36" data-name="Ellipse 36" d="M27.377-6.5A33.877,33.877,0,1,1-6.5,27.377,33.915,33.915,0,0,1,27.377-6.5Zm0,65.247A31.37,31.37,0,1,0-3.994,27.377,31.406,31.406,0,0,0,27.377,58.747Z" transform="translate(6.5 6.5)"/>
    <ellipse id="Elipse_37" data-name="Elipse 37" cx="10.67" cy="10.67" rx="10.67" ry="10.67" transform="translate(23.047 11.242)"/>
    <path id="Ellipse_37_-_Outline" data-name="Ellipse 37 - Outline" d="M5.423-6.5A11.923,11.923,0,1,1-6.5,5.423,11.936,11.936,0,0,1,5.423-6.5Zm0,21.339A9.416,9.416,0,1,0-3.994,5.423,9.427,9.427,0,0,0,5.423,14.839Z" transform="translate(28.294 16.489)"/>
    <path id="Path_72" data-name="Path 72" d="M373.816,454.767H371.31l2.506-.037Z" transform="translate(-321.806 -408.443)"/>
    <path id="Caminho_73" data-name="Caminho 73" d="M209.906,409.65h15.81s8.676,1.812,8.988,9.384c0,0,1.531,6.41-10.914,9.9a22.57,22.57,0,0,1-19.858-3.486s-5.03-3.181-2.855-8.8A11.468,11.468,0,0,1,209.906,409.65Z" transform="translate(-183.954 -372.054)"/>
    <path id="Path_73_-_Outline" data-name="Path 73 - Outline" d="M204.6,403.15h16.012l.127.026c3.316.693,9.646,3.77,9.98,10.465.187,1.1.754,7.725-11.824,11.248a25.3,25.3,0,0,1-6.822.957,23.214,23.214,0,0,1-14.185-4.693,8.447,8.447,0,0,1-3.214-10.21,12.651,12.651,0,0,1,9.854-7.785Zm15.739,2.506H204.761a10.112,10.112,0,0,0-7.746,6.193,6.02,6.02,0,0,0,2.357,7.289,21.176,21.176,0,0,0,12.7,4.2,22.8,22.8,0,0,0,6.146-.864c10.977-3.075,10.046-8.346,10.034-8.4l-.028-.118,0-.121C227.972,407.755,221.3,405.892,220.343,405.656Z" transform="translate(-178.724 -366.807)"/>
  </g>
  <g id="estrela" transform="translate(49.189)">
    <path id="Caminho_71" data-name="Caminho 71" d="M187.631,276.133l3.121-6.325a1.612,1.612,0,0,1,2.891,0l3.122,6.325a1.636,1.636,0,0,0,1.233.9l6.98,1.012a1.612,1.612,0,0,1,.894,2.75l-5.052,4.924a1.637,1.637,0,0,0-.474,1.45l1.192,6.952a1.612,1.612,0,0,1-2.339,1.7l-6.244-3.282a1.637,1.637,0,0,0-1.524,0l-6.244,3.282a1.612,1.612,0,0,1-2.339-1.7l1.193-6.952a1.638,1.638,0,0,0-.474-1.45l-5.051-4.924a1.612,1.612,0,0,1,.9-2.75l6.981-1.014a1.638,1.638,0,0,0,1.233-.9" transform="translate(-178.031 -268.909)" fill="#ffd81a"/>
  </g>
</svg>
