<svg id="salvar" viewBox="0 0 42 41" fill="none" xmlns="http://www.w3.org/2000/svg">
<path d="M1.87109 5.62893V5.49425C1.87109 4.40571 2.31382 3.36175 3.10189 2.59203C3.88995 1.82231 4.9588 1.38989 6.07329 1.38989H31.5819C32.4424 1.3894 33.2683 1.7207 33.88 2.31177L39.3839 7.62179C39.7787 8.00362 40.092 8.45809 40.3059 8.95894C40.5197 9.45979 40.6298 9.99707 40.6298 10.5397V33.9586C40.6298 34.652 40.49 35.3385 40.2183 35.979C39.9467 36.6196 39.5485 37.2016 39.0466 37.6919C38.5446 38.1821 37.9487 38.571 37.2929 38.8363C36.6371 39.1016 35.9342 39.2382 35.2244 39.2382H6.7266C6.08904 39.2384 5.45769 39.1159 4.8686 38.8778C4.27951 38.6396 3.74423 38.2905 3.29334 37.8502C2.84244 37.41 2.48476 36.8873 2.24073 36.312C1.9967 35.7367 1.87109 35.1201 1.87109 34.4973V19.207" stroke="#1D1D1B" stroke-width="1.89666" stroke-miterlimit="10" stroke-linecap="round"/>
<path d="M9.58594 1.38989H31.201V13.3727C31.201 14.0641 30.9198 14.7272 30.4192 15.2161C29.9187 15.705 29.2398 15.9796 28.5319 15.9796H12.255C11.5471 15.9796 10.8682 15.705 10.3677 15.2161C9.86714 14.7272 9.58594 14.0641 9.58594 13.3727V1.38989Z" stroke="#1D1D1B" stroke-width="1.89666" stroke-miterlimit="10"/>
<path d="M10.4039 22.0591H31.5889C32.0073 22.0591 32.4216 22.1396 32.8082 22.296C33.1947 22.4524 33.546 22.6816 33.8418 22.9706C34.1377 23.2595 34.3724 23.6026 34.5325 23.9801C34.6926 24.3577 34.775 24.7624 34.775 25.171V39.2397H7.21289V25.171C7.21289 24.762 7.29546 24.3569 7.45589 23.979C7.61631 23.6012 7.85144 23.2579 8.14782 22.9688C8.4442 22.6798 8.79602 22.4507 9.18314 22.2946C9.57027 22.1385 9.98511 22.0585 10.4039 22.0591Z" stroke="#1D1D1B" stroke-width="1.89666" stroke-miterlimit="10"/>
<path d="M26.9564 4.80017H24.5106C24.0754 4.80017 23.7227 5.14472 23.7227 5.56974V11.5852C23.7227 12.0102 24.0754 12.3548 24.5106 12.3548H26.9564C27.3915 12.3548 27.7443 12.0102 27.7443 11.5852V5.56974C27.7443 5.14472 27.3915 4.80017 26.9564 4.80017Z" stroke="#1D1D1B" stroke-width="1.99767" stroke-miterlimit="10"/>
</svg>
