<svg id="sino" viewBox="0 0 50 44" fill="none" xmlns="http://www.w3.org/2000/svg">
<path d="M6.77956 14.9115C4.78203 20.0561 5.45494 26.2018 5.45494 26.2018L3.13268 30.6045C2.18637 32.3991 3.54558 34.5208 5.64354 34.5208H27.5572C29.6495 34.5208 31.0088 32.4079 30.0714 30.6143L27.8105 26.2809C27.8105 26.2809 30.3135 8.15769 16.6433 8.02159C15.35 7.99157 14.0613 8.18474 12.8357 8.59236" stroke="black" stroke-width="2.36212" stroke-miterlimit="10" stroke-linecap="round"/>
<path d="M16.6582 7.75062C18.1348 7.75062 19.3319 6.57315 19.3319 5.12067C19.3319 3.66819 18.1348 2.49072 16.6582 2.49072C15.1815 2.49072 13.9844 3.66819 13.9844 5.12067C13.9844 6.57315 15.1815 7.75062 16.6582 7.75062Z" stroke="black" stroke-width="2.36212" stroke-miterlimit="10" stroke-linecap="round"/>
<path d="M21.9289 36.1753C21.9289 38.803 19.5442 40.9325 16.6015 40.9325C13.6587 40.9325 11.2695 38.803 11.2695 36.1753" stroke="black" stroke-width="2.36212" stroke-miterlimit="10"/>
</svg>
