<svg width="106" height="106" viewBox="0 0 106 106" fill="none" xmlns="http://www.w3.org/2000/svg">
<path d="M4.03728 32.6713C1.5478 39.6843 0 45.0639 0 53.0015C0.00360393 62.4251 2.51915 71.6774 7.28756 79.8056C12.056 87.9338 18.9049 94.6439 27.1289 99.245C35.3529 103.846 44.6548 106.172 54.0765 105.983C63.4983 105.793 72.6992 103.096 80.7319 98.1683L105.99 104.935L99.0863 79.1907C105.056 68.6767 107.252 56.4382 105.311 44.5046C103.37 32.5709 97.4085 21.6592 88.4148 13.5789C79.4211 5.49858 67.9357 0.735074 55.8631 0.0783133C43.7905 -0.578448 31.8561 2.911 22.039 9.968C22.039 9.968 8.31426 20.6039 4.03728 32.6713Z" fill="#11D183"/>
</svg>
